solid ascii
 facet normal -1 0 0
  outer loop
   vertex 0 200 0
   vertex 0 0 200
   vertex 0 200 200
  endloop
 endfacet
 facet normal -1 0 0
  outer loop
   vertex 0 0 0
   vertex 0 0 200
   vertex 0 200 0
  endloop
 endfacet
 facet normal 1 0 -0
  outer loop
   vertex 10000 0 200
   vertex 10000 200 0
   vertex 10000 200 200
  endloop
 endfacet
 facet normal 1 0 0
  outer loop
   vertex 10000 0 200
   vertex 10000 0 0
   vertex 10000 200 0
  endloop
 endfacet
 facet normal 0 -1 -0
  outer loop
   vertex 10000 0 0
   vertex 10000 0 200
   vertex 0 0 0
  endloop
 endfacet
 facet normal -0 -1 0
  outer loop
   vertex 0 0 0
   vertex 10000 0 200
   vertex 0 0 200
  endloop
 endfacet
 facet normal 0 1 -0
  outer loop
   vertex 10000 200 200
   vertex 10000 200 0
   vertex 0 200 0
  endloop
 endfacet
 facet normal 0 1 0
  outer loop
   vertex 10000 200 200
   vertex 0 200 0
   vertex 0 200 200
  endloop
 endfacet
 facet normal -0 0 -1
  outer loop
   vertex 0 200 0
   vertex 10000 200 0
   vertex 0 0 0
  endloop
 endfacet
 facet normal 0 -0 -1
  outer loop
   vertex 0 0 0
   vertex 10000 200 0
   vertex 10000 0 0
  endloop
 endfacet
 facet normal -0 0 1
  outer loop
   vertex 10000 200 200
   vertex 0 200 200
   vertex 0 0 200
  endloop
 endfacet
 facet normal 0 0 1
  outer loop
   vertex 10000 200 200
   vertex 0 0 200
   vertex 10000 0 200
  endloop
 endfacet
endsolid
