solid ascii
 facet normal -1 0 0
  outer loop
   vertex 0 3500 0
   vertex 0 0 800
   vertex 0 3500 800
  endloop
 endfacet
 facet normal -1 0 0
  outer loop
   vertex 0 0 0
   vertex 0 0 800
   vertex 0 3500 0
  endloop
 endfacet
 facet normal 1 0 -0
  outer loop
   vertex 8000 0 800
   vertex 8000 3500 0
   vertex 8000 3500 800
  endloop
 endfacet
 facet normal 1 0 0
  outer loop
   vertex 8000 0 800
   vertex 8000 0 0
   vertex 8000 3500 0
  endloop
 endfacet
 facet normal 0 -1 0
  outer loop
   vertex 0 0 0
   vertex 8000 0 0
   vertex 0 0 800
  endloop
 endfacet
 facet normal -0 -1 -0
  outer loop
   vertex 8000 0 0
   vertex 8000 0 800
   vertex 0 0 800
  endloop
 endfacet
 facet normal 0 1 0
  outer loop
   vertex 8000 3500 0
   vertex 0 3500 0
   vertex 0 3500 800
  endloop
 endfacet
 facet normal 0 1 -0
  outer loop
   vertex 8000 3500 800
   vertex 8000 3500 0
   vertex 0 3500 800
  endloop
 endfacet
 facet normal -0 0 -1
  outer loop
   vertex 0 3500 0
   vertex 8000 3500 0
   vertex 0 0 0
  endloop
 endfacet
 facet normal 0 -0 -1
  outer loop
   vertex 0 0 0
   vertex 8000 3500 0
   vertex 8000 0 0
  endloop
 endfacet
 facet normal -0 0 1
  outer loop
   vertex 8000 3500 800
   vertex 0 3500 800
   vertex 0 0 800
  endloop
 endfacet
 facet normal 0 0 1
  outer loop
   vertex 8000 3500 800
   vertex 0 0 800
   vertex 8000 0 800
  endloop
 endfacet
endsolid
